<?xml version="1.0" encoding="utf-8"?>
<!-- Generator: Adobe Illustrator 26.5.0, SVG Export Plug-In . SVG Version: 6.00 Build 0)  -->
<svg version="1.1" id="starEmpty" xmlns="http://www.w3.org/2000/svg" xmlns:xlink="http://www.w3.org/1999/xlink" x="0px" y="0px"
	 viewBox="0 0 80 80" enable-background="new 0 0 80 80" xml:space="preserve">
<path d="M40,11.6l8.5,17.5l0.9,1.9l2.1,0.3L70.8,34l-14,13.5l-1.5,1.5l0.4,2.1L59,70.1L41.9,61L40,60l-1.9,1L21,70.1L24.4,51
	l0.4-2.1l-1.5-1.5L9.2,34l19.3-2.7l2.1-0.3l0.9-1.9L40,11.6 M40,2.4L27.9,27.3L0.5,31.1l20,19.2l-4.9,27.3L40,64.5l24.4,13.1
	l-4.9-27.3l20-19.2l-27.4-3.8L40,2.4L40,2.4z"/>
</svg>
