<?xml version="1.0" standalone="no"?>
<!DOCTYPE svg PUBLIC "-//W3C//DTD SVG 20010904//EN"
 "http://www.w3.org/TR/2001/REC-SVG-20010904/DTD/svg10.dtd">
<svg version="1.0" xmlns="http://www.w3.org/2000/svg"
 width="3024.000000pt" height="3024.000000pt" viewBox="0 0 3024.000000 3024.000000"
 preserveAspectRatio="xMidYMid meet">
<metadata>
Created by potrace 1.14, written by Peter Selinger 2001-2017
</metadata>
<g transform="translate(0.000000,3024.000000) scale(0.100000,-0.100000)"
fill="#000000" stroke="none">
<path d="M5505 29443 c-138 -5 -371 -25 -445 -38 -41 -7 -106 -25 -145 -40
-38 -15 -125 -41 -193 -60 -79 -21 -143 -45 -180 -67 -31 -20 -88 -46 -127
-58 -38 -12 -92 -39 -120 -58 -27 -19 -75 -45 -106 -57 -31 -13 -81 -41 -110
-63 -30 -22 -74 -50 -99 -62 -25 -13 -63 -39 -86 -59 -22 -20 -60 -48 -85 -64
-51 -32 -159 -118 -292 -234 -176 -154 -453 -471 -563 -645 -17 -27 -45 -66
-61 -86 -17 -21 -43 -62 -58 -91 -15 -30 -44 -79 -65 -110 -20 -31 -43 -72
-49 -91 -6 -20 -32 -72 -57 -115 -25 -44 -56 -116 -68 -161 -13 -45 -40 -114
-60 -155 -20 -42 -43 -110 -52 -154 -8 -44 -24 -122 -36 -172 -21 -90 -23 -93
-50 -93 l-28 0 0 -2085 0 -2085 28 0 c27 0 29 -4 45 -72 9 -40 23 -114 32
-164 17 -105 40 -184 66 -236 10 -20 32 -82 48 -138 16 -56 47 -131 69 -168
22 -37 47 -91 57 -120 9 -29 33 -76 52 -105 19 -29 46 -74 60 -102 14 -27 43
-75 65 -105 21 -30 58 -83 81 -117 78 -115 112 -157 227 -283 148 -160 361
-359 434 -404 16 -10 50 -35 75 -56 25 -20 75 -54 109 -75 111 -66 103 0 108
-905 2 -426 7 -4154 12 -8285 6 -5480 11 -7526 20 -7570 6 -33 18 -130 27
-215 22 -215 32 -264 70 -350 19 -41 43 -118 54 -170 14 -63 35 -124 65 -180
24 -47 51 -110 60 -141 9 -31 32 -80 52 -109 20 -29 49 -81 65 -117 16 -36 42
-82 58 -102 15 -20 38 -56 51 -81 12 -25 39 -65 59 -89 20 -24 52 -65 71 -91
165 -225 439 -501 631 -636 30 -21 71 -53 91 -71 20 -17 56 -42 78 -53 23 -12
68 -40 99 -64 32 -23 80 -50 107 -61 27 -10 73 -35 102 -56 30 -21 84 -48 120
-60 37 -11 97 -39 134 -60 36 -21 90 -44 120 -50 87 -18 155 -39 221 -69 80
-35 130 -46 307 -65 80 -9 151 -18 158 -20 6 -2 12 -18 12 -35 l0 -30 5989 0
5990 0 3 33 3 32 110 12 c195 22 293 42 363 74 37 17 117 43 178 59 67 17 132
41 162 60 27 17 83 42 123 55 40 14 100 43 133 64 34 22 86 50 117 64 30 13
71 38 90 54 18 17 58 42 87 57 29 15 69 42 90 60 20 18 57 46 82 61 45 28 59
40 245 210 150 138 334 344 422 473 17 26 46 65 63 88 18 22 48 69 67 105 19
35 48 81 65 103 17 21 43 71 58 110 14 39 42 94 62 123 20 29 43 81 53 120 10
37 36 101 57 140 29 55 44 99 59 180 11 60 38 160 59 223 22 65 44 156 51 210
9 67 13 373 16 1049 3 869 5 956 20 973 15 17 99 18 2117 18 2035 0 2292 3
2414 31 26 5 79 23 120 40 40 16 126 38 190 50 93 16 131 28 187 59 38 21 106
48 150 60 44 12 100 36 124 53 24 17 80 45 124 64 44 18 93 45 110 59 16 14
60 41 97 59 37 19 89 52 115 75 25 22 61 48 78 56 18 9 53 35 78 58 25 22 75
64 111 93 148 118 356 335 490 513 15 19 41 51 58 70 17 19 37 49 44 65 7 17
30 50 51 75 21 25 52 77 70 115 18 39 46 86 62 105 17 19 40 64 53 100 28 80
46 117 76 152 14 17 29 59 39 105 9 43 37 121 61 173 31 68 48 122 59 190 8
52 18 110 21 128 4 28 9 32 34 32 l30 0 0 7040 0 7040 -29 0 c-35 0 -36 3 -50
126 -12 102 -24 141 -69 231 -17 33 -42 104 -55 156 -17 66 -34 108 -55 134
-16 21 -42 72 -56 113 -27 74 -47 112 -73 139 -8 7 -32 49 -53 92 -22 43 -53
93 -69 111 -15 18 -38 53 -51 78 -12 25 -40 65 -62 90 -22 25 -83 97 -136 160
-141 167 -240 263 -495 482 -30 26 -79 61 -108 79 -30 17 -69 44 -87 60 -18
16 -68 47 -111 68 -42 22 -83 47 -91 56 -17 21 -51 38 -125 64 -33 12 -83 37
-111 57 -34 22 -84 43 -143 59 -50 14 -108 35 -128 48 -59 37 -119 56 -230 72
-55 8 -132 26 -170 39 -86 31 -142 46 -218 58 -36 7 -590 13 -1411 17 l-1351
6 -38 26 -38 25 1 780 c2 824 4 781 -47 1149 -24 169 -42 248 -70 302 -17 35
-60 169 -76 238 -3 17 -24 60 -45 97 -21 37 -49 96 -61 130 -13 35 -40 89 -62
121 -21 32 -48 80 -59 105 -11 26 -37 70 -58 97 -20 28 -45 66 -55 85 -19 37
-144 205 -242 325 -87 106 -386 402 -493 487 -52 41 -101 83 -109 92 -8 10
-31 26 -52 36 -20 11 -58 38 -84 60 -26 22 -68 51 -93 64 -26 14 -71 43 -101
65 -30 22 -70 46 -90 52 -20 7 -66 31 -102 54 -36 24 -95 53 -130 65 -35 12
-98 40 -139 61 -42 22 -120 50 -177 64 -57 14 -124 35 -150 46 -79 35 -139 48
-323 71 l-175 22 -7285 1 c-4007 1 -7316 0 -7355 -2z m18355 -8036 c169 -3
196 -6 310 -34 69 -17 161 -37 205 -43 103 -14 136 -25 204 -66 31 -19 81 -41
111 -50 30 -9 79 -34 109 -57 30 -23 72 -51 92 -62 53 -28 223 -189 270 -255
22 -30 55 -74 73 -97 19 -23 42 -66 51 -95 9 -29 32 -78 50 -108 40 -68 51
-103 64 -205 6 -44 18 -134 28 -200 17 -114 18 -380 18 -5045 0 -3976 -2
-4940 -13 -5005 -7 -44 -20 -134 -28 -200 -16 -136 -34 -197 -69 -245 -13 -18
-34 -62 -46 -97 -11 -35 -36 -83 -55 -106 -19 -23 -49 -64 -68 -92 -42 -61
-197 -213 -251 -245 -22 -13 -59 -39 -82 -58 -23 -19 -74 -47 -114 -63 -39
-16 -83 -37 -97 -48 -54 -37 -92 -51 -184 -66 -51 -9 -145 -31 -208 -50 -63
-19 -144 -39 -180 -44 -41 -7 -505 -11 -1253 -11 -1134 -1 -1190 -1 -1209 17
-20 18 -20 30 -16 6298 3 6514 2 6311 39 6335 7 5 1900 3 2249 -3z"/>
</g>
</svg>
